<?xml version="1.0" ?><!DOCTYPE svg  PUBLIC '-//W3C//DTD SVG 1.1//EN'  'http://www.w3.org/Graphics/SVG/1.1/DTD/svg11.dtd'><svg enable-background="new 0 0 80 80" id="Layer_1" version="1.1" viewBox="0 0 80 80" xml:space="preserve" xmlns="http://www.w3.org/2000/svg" xmlns:xlink="http://www.w3.org/1999/xlink" x="0px" y="0px"><path d="M73,41" fill="none" stroke="#0E1A36" stroke-miterlimit="10" stroke-width="2"/><path d="M6,41" fill="none" stroke="#0E1A36" stroke-miterlimit="10" stroke-width="2"/><path d="M71,41" fill="none" stroke="#0E1A36" stroke-miterlimit="10" stroke-width="2"/><g><path d="M63,42c-0.692,12.635-11.193,22.667-24,22.667   S15.728,54.635,15.036,42" fill="none" stroke="#0E1A36" stroke-miterlimit="10" stroke-width="2"/><path d="M15.009,40C15.362,27.053,25.968,16.667,39,16.667   c13.032,0,23.638,10.387,23.991,23.334" fill="none" stroke="#0E1A36" stroke-miterlimit="10" stroke-width="2"/><path d="M58.956,42C58.267,52.409,49.58,60.667,39,60.667c-10.58,0-19.267-8.258-19.956-18.666" fill="#0E1A36"/><path d="M19.011,40C19.364,29.28,28.195,20.667,39,20.667S58.636,29.28,58.989,40" fill="#0E1A36"/><path d="M5,41c0,0,5.667,0,7,0s3-2,3-2" fill="none" stroke="#0E1A36" stroke-miterlimit="10" stroke-width="2"/><path d="M5,41c0,0,5.667,0,7,0s3,2,3,2" fill="none" stroke="#0E1A36" stroke-miterlimit="10" stroke-width="2"/><path d="M73,41c0,0-5.667,0-7,0s-3-2-3-2" fill="none" stroke="#0E1A36" stroke-miterlimit="10" stroke-width="2"/><path d="M73,41c0,0-5.667,0-7,0s-3,2-3,2" fill="none" stroke="#0E1A36" stroke-miterlimit="10" stroke-width="2"/></g></svg>